<svg width="269" height="52" viewBox="0 0 269 52" fill="none" xmlns="http://www.w3.org/2000/svg">
<rect width="269" height="52" rx="26" fill="#133D59"/>
<path d="M53.432 32C53.1973 32 53 31.92 52.84 31.76C52.68 31.6 52.6 31.4027 52.6 31.168V20.336C52.6 20.0907 52.68 19.8933 52.84 19.744C53 19.584 53.1973 19.504 53.432 19.504H56.632C57.432 19.504 58.1413 19.68 58.76 20.032C59.3787 20.384 59.8587 20.8747 60.2 21.504C60.552 22.1227 60.728 22.8373 60.728 23.648C60.728 24.4267 60.552 25.12 60.2 25.728C59.8587 26.336 59.3787 26.8107 58.76 27.152C58.1413 27.4933 57.432 27.664 56.632 27.664H54.264V31.168C54.264 31.4027 54.184 31.6 54.024 31.76C53.8747 31.92 53.6773 32 53.432 32ZM54.264 26.128H56.632C57.1227 26.128 57.5547 26.0213 57.928 25.808C58.3013 25.5947 58.5947 25.3013 58.808 24.928C59.0213 24.5547 59.128 24.128 59.128 23.648C59.128 23.136 59.0213 22.688 58.808 22.304C58.5947 21.9093 58.3013 21.6 57.928 21.376C57.5547 21.152 57.1227 21.04 56.632 21.04H54.264V26.128ZM65.7443 32.064C64.9656 32.064 64.2669 31.872 63.6483 31.488C63.0296 31.0933 62.5389 30.5653 62.1763 29.904C61.8243 29.232 61.6483 28.4747 61.6483 27.632C61.6483 26.7893 61.8403 26.032 62.2243 25.36C62.6189 24.688 63.1469 24.16 63.8083 23.776C64.4803 23.3813 65.2323 23.184 66.0643 23.184C66.8963 23.184 67.6429 23.3813 68.3043 23.776C68.9656 24.16 69.4883 24.688 69.8723 25.36C70.2669 26.032 70.4643 26.7893 70.4643 27.632H69.8403C69.8403 28.4747 69.6589 29.232 69.2963 29.904C68.9443 30.5653 68.4589 31.0933 67.8403 31.488C67.2216 31.872 66.5229 32.064 65.7443 32.064ZM66.0643 30.624C66.6083 30.624 67.0936 30.496 67.5203 30.24C67.9469 29.9733 68.2829 29.616 68.5283 29.168C68.7736 28.7093 68.8963 28.1973 68.8963 27.632C68.8963 27.056 68.7736 26.544 68.5283 26.096C68.2829 25.6373 67.9469 25.28 67.5203 25.024C67.0936 24.7573 66.6083 24.624 66.0643 24.624C65.5309 24.624 65.0456 24.7573 64.6083 25.024C64.1816 25.28 63.8403 25.6373 63.5843 26.096C63.3389 26.544 63.2163 27.056 63.2163 27.632C63.2163 28.1973 63.3389 28.7093 63.5843 29.168C63.8403 29.616 64.1816 29.9733 64.6083 30.24C65.0456 30.496 65.5309 30.624 66.0643 30.624ZM69.6483 32.016C69.4136 32.016 69.2163 31.9413 69.0563 31.792C68.9069 31.632 68.8323 31.4347 68.8323 31.2V28.752L69.1363 27.056L70.4643 27.632V31.2C70.4643 31.4347 70.3843 31.632 70.2243 31.792C70.0749 31.9413 69.8829 32.016 69.6483 32.016ZM74.4611 35.84C74.3545 35.84 74.2265 35.808 74.0771 35.744C73.6078 35.5307 73.4798 35.1947 73.6931 34.736L78.5731 23.712C78.7865 23.264 79.1225 23.136 79.5811 23.328C80.0611 23.5307 80.1945 23.8667 79.9811 24.336L75.0851 35.344C74.9571 35.6747 74.7491 35.84 74.4611 35.84ZM76.3491 31.648C76.1465 31.7333 75.9545 31.744 75.7731 31.68C75.6025 31.6053 75.4638 31.4667 75.3571 31.264L71.6931 24.304C71.5865 24.1013 71.5705 23.9093 71.6451 23.728C71.7305 23.536 71.8745 23.3973 72.0771 23.312C72.2798 23.2267 72.4718 23.2213 72.6531 23.296C72.8345 23.36 72.9731 23.4933 73.0691 23.696L76.5731 30.656C76.6798 30.8587 76.7171 31.056 76.6851 31.248C76.6638 31.4293 76.5518 31.5627 76.3491 31.648ZM88.2216 32C88.051 32 87.891 31.952 87.7416 31.856C87.603 31.7493 87.507 31.6213 87.4536 31.472L85.0856 24.368C85.0003 24.0373 85.0003 23.7707 85.0856 23.568C85.1816 23.3547 85.3843 23.248 85.6936 23.248C85.8963 23.248 86.0616 23.3067 86.1896 23.424C86.3283 23.5307 86.4403 23.7173 86.5256 23.984L88.5416 30.288H87.9816L89.8856 23.856C89.939 23.6747 90.0296 23.5307 90.1576 23.424C90.2856 23.3067 90.4616 23.248 90.6856 23.248C90.899 23.248 91.0696 23.3067 91.1976 23.424C91.3363 23.5307 91.427 23.6747 91.4696 23.856L93.0216 29.904H92.7816L94.6696 23.984C94.819 23.4933 95.0963 23.248 95.5016 23.248C95.8003 23.248 96.003 23.3547 96.1096 23.568C96.2163 23.7707 96.211 24.0373 96.0936 24.368L93.7256 31.472C93.683 31.6213 93.5923 31.7493 93.4536 31.856C93.315 31.952 93.155 32 92.9736 32C92.803 32 92.643 31.952 92.4936 31.856C92.3443 31.7493 92.2483 31.6213 92.2056 31.472L90.5576 25.376H90.7176L88.9896 31.472C88.947 31.6213 88.851 31.7493 88.7016 31.856C88.563 31.952 88.403 32 88.2216 32ZM98.8223 32C98.5876 32 98.3903 31.9253 98.2303 31.776C98.0809 31.616 98.0063 31.4187 98.0063 31.184V24.064C98.0063 23.8187 98.0809 23.6213 98.2303 23.472C98.3903 23.3227 98.5876 23.248 98.8223 23.248C99.0676 23.248 99.2649 23.3227 99.4143 23.472C99.5636 23.6213 99.6383 23.8187 99.6383 24.064V31.184C99.6383 31.4187 99.5636 31.616 99.4143 31.776C99.2649 31.9253 99.0676 32 98.8223 32ZM98.8223 21.824C98.5343 21.824 98.2836 21.7227 98.0703 21.52C97.8676 21.3067 97.7663 21.056 97.7663 20.768C97.7663 20.48 97.8676 20.2347 98.0703 20.032C98.2836 19.8187 98.5343 19.712 98.8223 19.712C99.1103 19.712 99.3556 19.8187 99.5583 20.032C99.7716 20.2347 99.8783 20.48 99.8783 20.768C99.8783 21.056 99.7716 21.3067 99.5583 21.52C99.3556 21.7227 99.1103 21.824 98.8223 21.824ZM105.858 32C105.325 32 104.845 31.8667 104.418 31.6C103.992 31.3227 103.656 30.9493 103.41 30.48C103.165 30.0107 103.042 29.4827 103.042 28.896V21.264C103.042 21.0293 103.117 20.8373 103.266 20.688C103.416 20.5387 103.608 20.464 103.842 20.464C104.077 20.464 104.269 20.5387 104.418 20.688C104.568 20.8373 104.642 21.0293 104.642 21.264V28.896C104.642 29.3227 104.76 29.68 104.994 29.968C105.229 30.256 105.517 30.4 105.858 30.4H106.402C106.594 30.4 106.754 30.4747 106.882 30.624C107.021 30.7733 107.09 30.9653 107.09 31.2C107.09 31.4347 107 31.6267 106.818 31.776C106.648 31.9253 106.424 32 106.146 32H105.858ZM102.306 24.944C102.082 24.944 101.901 24.88 101.762 24.752C101.624 24.624 101.554 24.464 101.554 24.272C101.554 24.0587 101.624 23.888 101.762 23.76C101.901 23.632 102.082 23.568 102.306 23.568H106.002C106.226 23.568 106.408 23.632 106.546 23.76C106.685 23.888 106.754 24.0587 106.754 24.272C106.754 24.464 106.685 24.624 106.546 24.752C106.408 24.88 106.226 24.944 106.002 24.944H102.306ZM116.488 32.016C116.254 32.016 116.056 31.9413 115.896 31.792C115.747 31.632 115.672 31.4347 115.672 31.2V27.264C115.672 26.656 115.56 26.16 115.336 25.776C115.112 25.392 114.808 25.1093 114.424 24.928C114.051 24.736 113.619 24.64 113.128 24.64C112.68 24.64 112.275 24.7307 111.912 24.912C111.55 25.0933 111.262 25.3387 111.048 25.648C110.835 25.9467 110.728 26.2933 110.728 26.688H109.72C109.72 26.016 109.88 25.4187 110.2 24.896C110.531 24.3627 110.979 23.9413 111.544 23.632C112.11 23.3227 112.744 23.168 113.448 23.168C114.184 23.168 114.84 23.328 115.416 23.648C116.003 23.9573 116.462 24.416 116.792 25.024C117.134 25.632 117.304 26.3787 117.304 27.264V31.2C117.304 31.4347 117.224 31.632 117.064 31.792C116.915 31.9413 116.723 32.016 116.488 32.016ZM109.912 32.016C109.678 32.016 109.48 31.9413 109.32 31.792C109.171 31.632 109.096 31.4347 109.096 31.2V24.064C109.096 23.8187 109.171 23.6213 109.32 23.472C109.48 23.3227 109.678 23.248 109.912 23.248C110.158 23.248 110.355 23.3227 110.504 23.472C110.654 23.6213 110.728 23.8187 110.728 24.064V31.2C110.728 31.4347 110.654 31.632 110.504 31.792C110.355 31.9413 110.158 32.016 109.912 32.016ZM109.912 28.816C109.678 28.816 109.48 28.7413 109.32 28.592C109.171 28.432 109.096 28.2347 109.096 28V20.32C109.096 20.0747 109.171 19.8773 109.32 19.728C109.48 19.5787 109.678 19.504 109.912 19.504C110.158 19.504 110.355 19.5787 110.504 19.728C110.654 19.8773 110.728 20.0747 110.728 20.32V28C110.728 28.2347 110.654 28.432 110.504 28.592C110.355 28.7413 110.158 28.816 109.912 28.816Z" fill="#F4B31D"/>
<path d="M127 19.9078C127 19.1203 127.638 18.5201 128.388 18.5201H130.373V15.1474C130.373 14.2866 131.046 13.6484 131.872 13.6484C132.733 13.6484 133.371 14.2866 133.371 15.1474V18.5201H138.318C139.068 18.5201 139.706 19.1203 139.706 19.9078C139.706 20.6572 139.068 21.2954 138.318 21.2954H133.371V29.7652C133.371 33.2492 135.356 35.1229 138.318 35.1229C139.068 35.1229 139.706 35.7611 139.706 36.5106C139.706 37.2981 139.068 37.9335 138.318 37.9335C133.672 37.9335 130.373 34.7862 130.373 29.7652V21.2954H128.388C127.638 21.2954 127 20.6572 127 19.9078Z" fill="#F4B31D"/>
<path d="M138.582 28.0792C138.582 22.534 142.854 18.1484 148.475 18.1484C154.096 18.1484 158.329 22.534 158.329 28.0792C158.329 33.6243 154.096 38.0099 148.475 38.0099C142.854 38.0099 138.582 33.6243 138.582 28.0792ZM155.293 28.0792C155.293 24.1063 152.334 20.921 148.472 20.921C144.613 20.921 141.615 24.1063 141.615 28.0792C141.615 32.014 144.613 35.2373 148.472 35.2373C152.334 35.2346 155.293 32.014 155.293 28.0792Z" fill="#F4B31D"/>
<path d="M158.445 28.0792C158.445 22.534 162.717 18.1484 168.338 18.1484C173.959 18.1484 178.193 22.534 178.193 28.0792C178.193 33.6243 173.959 38.0099 168.338 38.0099C162.72 38.0099 158.445 33.6243 158.445 28.0792ZM175.159 28.0792C175.159 24.1063 172.2 20.921 168.338 20.921C164.479 20.921 161.481 24.1063 161.481 28.0792C161.481 32.014 164.479 35.2373 168.338 35.2373C172.2 35.2346 175.159 32.014 175.159 28.0792Z" fill="#F4B31D"/>
<path d="M179.164 26.8017C179.164 21.3679 182.8 18.1445 187.37 18.1445C191.979 18.1445 195.615 21.3679 195.615 26.8017V36.3957C195.615 37.2565 194.941 37.9327 194.116 37.9327C193.255 37.9327 192.617 37.2592 192.617 36.3957V26.7284C192.617 22.9049 190.292 20.9198 187.37 20.9198C184.484 20.9198 182.162 22.9049 182.162 26.7284V36.3957C182.162 37.2565 181.489 37.9327 180.663 37.9327C179.802 37.9327 179.164 37.2592 179.164 36.3957V26.8017Z" fill="#F4B31D"/>
<path d="M197.035 13.8737C197.035 12.8255 197.861 12 198.909 12C199.922 12 200.783 12.8255 200.783 13.8737C200.783 14.8866 199.922 15.7474 198.909 15.7474C197.861 15.7474 197.035 14.8866 197.035 13.8737ZM197.41 19.7203C197.41 18.8948 198.048 18.2213 198.909 18.2213C199.734 18.2213 200.408 18.8948 200.408 19.7203V36.3964C200.408 37.2572 199.734 37.9334 198.909 37.9334C198.048 37.9334 197.41 37.2599 197.41 36.3964V19.7203Z" fill="#F4B31D"/>
<path d="M201.348 28.0792C201.348 22.534 205.619 18.1484 211.24 18.1484C213.975 18.1484 216.261 19.1966 217.722 20.5463C218.059 20.845 218.284 21.2577 218.284 21.7085C218.284 22.0833 218.173 22.42 217.798 22.8327L211.129 30.8137C210.83 31.1504 210.491 31.2998 210.081 31.2998C209.255 31.2998 208.658 30.7377 208.658 29.9502C208.658 29.6134 208.734 29.2767 208.995 29.0133L214.841 22.1186C213.866 21.293 212.481 20.9183 211.243 20.9183C207.42 20.9183 204.386 24.0656 204.386 28.0765C204.386 32.0493 207.384 35.2346 211.243 35.2346C213.38 35.2346 215.067 34.2977 216.226 32.9861C216.639 32.6114 216.976 32.3127 217.5 32.3127C218.361 32.3127 218.999 32.9128 218.999 33.7356C218.999 34.0343 218.811 34.4471 218.548 34.7485C216.973 36.6223 214.388 38.0099 211.24 38.0099C205.657 38.0099 201.348 33.6243 201.348 28.0792Z" fill="#F4B31D"/>
</svg>
